<svg width="169" height="50" viewBox="0 0 169 50" fill="none" xmlns="http://www.w3.org/2000/svg">
<path d="M33.4087 9C30.3743 9 27.4621 10.4125 25.5613 12.6447C23.6604 10.4125 20.7482 9 17.7138 9C12.3427 9 8.12256 13.2202 8.12256 18.5913C8.12256 25.1831 14.0517 30.5542 23.0326 38.7155L25.5613 41L28.0899 38.6981C37.0708 30.5542 42.9999 25.1831 42.9999 18.5913C42.9999 13.2202 38.7798 9 33.4087 9ZM25.7356 36.1172L25.5613 36.2916L25.3869 36.1172C17.086 28.6011 11.6103 23.6311 11.6103 18.5913C11.6103 15.1035 14.2261 12.4877 17.7138 12.4877C20.3994 12.4877 23.0152 14.2142 23.9395 16.6033H27.2005C28.1073 14.2142 30.7231 12.4877 33.4087 12.4877C36.8964 12.4877 39.5122 15.1035 39.5122 18.5913C39.5122 23.6311 34.0365 28.6011 25.7356 36.1172Z" fill="url(#paint0_linear_48682_511)"/>
<g clip-path="url(#clip0_48682_511)">
<path d="M95.5002 13.4993H92.3335C92.3335 10.0002 89.4993 7.16602 86.0002 7.16602C82.501 7.16602 79.6668 10.0002 79.6668 13.4993H76.5002C74.7585 13.4993 73.3335 14.9243 73.3335 16.666V35.666C73.3335 37.4077 74.7585 38.8327 76.5002 38.8327H95.5002C97.2418 38.8327 98.6668 37.4077 98.6668 35.666V16.666C98.6668 14.9243 97.2418 13.4993 95.5002 13.4993ZM86.0002 10.3327C87.7418 10.3327 89.1668 11.7577 89.1668 13.4993H82.8335C82.8335 11.7577 84.2585 10.3327 86.0002 10.3327ZM95.5002 35.666H76.5002V16.666H79.6668V19.8327C79.6668 20.7035 80.3793 21.416 81.2502 21.416C82.121 21.416 82.8335 20.7035 82.8335 19.8327V16.666H89.1668V19.8327C89.1668 20.7035 89.8793 21.416 90.7502 21.416C91.621 21.416 92.3335 20.7035 92.3335 19.8327V16.666H95.5002V35.666Z" fill="#002F52"/>
</g>
<path d="M145 9C136.168 9 129 16.168 129 25C129 33.832 136.168 41 145 41C153.832 41 161 33.832 161 25C161 16.168 153.832 9 145 9ZM137.112 35.048C137.8 33.608 141.992 32.2 145 32.2C148.008 32.2 152.216 33.608 152.888 35.048C150.712 36.776 147.976 37.8 145 37.8C142.024 37.8 139.288 36.776 137.112 35.048ZM155.176 32.728C152.888 29.944 147.336 29 145 29C142.664 29 137.112 29.944 134.824 32.728C133.192 30.584 132.2 27.912 132.2 25C132.2 17.944 137.944 12.2 145 12.2C152.056 12.2 157.8 17.944 157.8 25C157.8 27.912 156.808 30.584 155.176 32.728V32.728ZM145 15.4C141.896 15.4 139.4 17.896 139.4 21C139.4 24.104 141.896 26.6 145 26.6C148.104 26.6 150.6 24.104 150.6 21C150.6 17.896 148.104 15.4 145 15.4ZM145 23.4C143.672 23.4 142.6 22.328 142.6 21C142.6 19.672 143.672 18.6 145 18.6C146.328 18.6 147.4 19.672 147.4 21C147.4 22.328 146.328 23.4 145 23.4Z" fill="#002F52"/>
<defs>
<linearGradient id="paint0_linear_48682_511" x1="22.6952" y1="5.15999" x2="72.9448" y2="12.4119" gradientUnits="userSpaceOnUse">
<stop stop-color="#002F52"/>
<stop offset="1" stop-color="#326589"/>
</linearGradient>
<clipPath id="clip0_48682_511">
<rect width="38" height="38" fill="white" transform="translate(67 4)"/>
</clipPath>
</defs>
</svg>
